<svg width="413" height="392" viewBox="0 0 413 392" fill="none" xmlns="http://www.w3.org/2000/svg">
<g clip-path="url(#clip0_27_435)">
<path opacity="0.25" d="M125.923 341.901H59.6171L274.077 -23.3018H340.383L125.923 341.901ZM65.8333 194.266C35.7883 194.266 12.3048 184.251 -4.61712 164.221C-21.539 143.845 -30 116.563 -30 82.3739C-30 47.8393 -21.539 20.7297 -4.61712 1.04503C12.6501 -18.985 36.1336 -29 65.8333 -29C95.8784 -29 119.362 -18.8123 136.284 1.56307C153.206 21.5931 161.667 48.53 161.667 82.3739C161.667 116.563 153.206 143.845 136.284 164.221C119.362 184.251 95.8784 194.266 65.8333 194.266ZM65.8333 146.09C76.1937 146.09 84.1366 141.083 89.6622 131.068C95.533 121.053 98.4685 104.821 98.4685 82.3739C98.4685 59.5811 95.533 43.5225 89.6622 34.1982C84.1366 24.8739 76.1937 20.2117 65.8333 20.2117C55.1276 20.2117 47.012 24.8739 41.4865 34.1982C35.961 43.1772 33.1982 59.2357 33.1982 82.3739C33.1982 105.512 35.961 121.916 41.4865 131.586C47.012 141.255 55.1276 146.09 65.8333 146.09ZM334.167 347.599C304.122 347.599 280.638 337.411 263.716 317.036C246.794 296.661 238.333 269.378 238.333 235.189C238.333 200.655 246.794 173.545 263.716 153.86C280.983 134.176 304.467 124.333 334.167 124.333C364.557 124.333 388.041 134.348 404.617 154.378C421.539 174.408 430 201.345 430 235.189C430 269.378 421.539 296.661 404.617 317.036C388.041 337.411 364.557 347.599 334.167 347.599ZM334.167 298.387C344.872 298.387 352.988 293.553 358.514 283.883C364.384 273.868 367.32 257.637 367.32 235.189C367.32 212.396 364.384 196.338 358.514 187.014C352.988 177.344 344.872 172.509 334.167 172.509C323.806 172.509 315.691 177.171 309.82 186.496C304.294 195.82 301.532 212.051 301.532 235.189C301.532 258.327 304.294 274.731 309.82 284.401C315.691 293.725 323.806 298.387 334.167 298.387Z" fill="url(#paint0_linear_27_435)"/>
</g>
<defs>
<linearGradient id="paint0_linear_27_435" x1="200" y1="-29" x2="200" y2="347.599" gradientUnits="userSpaceOnUse">
<stop stop-color="white"/>
<stop offset="1" stop-color="white" stop-opacity="0"/>
</linearGradient>
<clipPath id="clip0_27_435">
<rect width="413" height="392" rx="20" fill="white"/>
</clipPath>
</defs>
</svg>
