<svg width="180" height="196" viewBox="0 0 180 196" fill="none" xmlns="http://www.w3.org/2000/svg">
<path d="M0 163.09H3.79934V173.335H17.3979V163.09H21.1972V187.456H17.3979V176.837H3.79934V187.456H0V163.09Z" fill="white"/>
<path d="M25.8955 178.664V169.052H29.436V178.664C29.436 182.65 31.6341 184.661 34.9876 184.661C38.341 184.661 40.5391 182.65 40.5391 178.664V169.052H44.0796V178.664C44.0796 184.774 40.4289 187.94 34.9876 187.94C29.5462 187.94 25.8955 184.81 25.8955 178.664Z" fill="white"/>
<path d="M48.0276 189.654H51.6424C52.4981 191.778 54.6603 192.711 57.3426 192.711C61.106 192.711 63.6013 190.922 63.6013 186.116V183.992C62.3357 186.378 59.7636 187.792 56.6714 187.792C51.9013 187.792 47.3564 184.513 47.3564 178.254C47.3564 172.664 51.4554 168.567 57.2659 168.567C63.0764 168.567 67.101 172.479 67.101 178.403V185.965C67.101 193.044 62.7791 195.8 57.3402 195.8C52.8313 195.8 49.2933 193.899 48.0252 189.652L48.0276 189.654ZM63.6013 178.254C63.6013 174.529 61.0676 171.844 57.2683 171.844C53.4689 171.844 50.9353 174.526 50.9353 178.254C50.9353 181.981 53.4689 184.477 57.2683 184.477C61.0676 184.477 63.6013 181.981 63.6013 178.254Z" fill="white"/>
<path d="M70.3823 178.254C70.3823 172.664 74.4813 168.567 80.2918 168.567C86.1022 168.567 90.2036 172.666 90.2036 178.254C90.2036 183.841 86.1046 187.94 80.2918 187.94C74.4789 187.94 70.3823 183.841 70.3823 178.254ZM86.6272 178.254C86.6272 174.529 84.0935 171.844 80.2942 171.844C76.4948 171.844 73.9611 174.526 73.9611 178.254C73.9611 181.981 76.4948 184.661 80.2942 184.661C84.0935 184.661 86.6272 181.979 86.6272 178.254Z" fill="white"/>
<path d="M94.1543 163.09H105.89C110.399 163.09 112.82 165.698 112.82 169.349C112.82 171.882 111.59 173.819 109.467 174.788V174.862C112.262 175.682 113.937 177.954 113.937 180.934C113.937 184.697 111.478 187.454 106.859 187.454H94.1543V163.088V163.09ZM105.48 173.299C107.791 173.299 109.057 171.882 109.057 169.946C109.057 168.009 108.014 166.592 105.406 166.592H97.9536V173.299H105.48ZM106.226 183.954C108.908 183.954 110.025 182.389 110.025 180.452C110.025 178.328 108.647 176.801 106.3 176.801H97.9536V183.954H106.226Z" fill="white"/>
<path d="M116.36 178.403C116.36 172.628 120.459 168.567 126.308 168.567C132.157 168.567 136.107 172.518 136.107 178.403V187.456H132.867V183.432C131.637 186.411 128.916 187.94 125.714 187.94C120.908 187.94 116.363 184.474 116.363 178.403H116.36ZM132.605 178.254C132.605 174.529 130.072 171.844 126.272 171.844C122.473 171.844 119.939 174.526 119.939 178.254C119.939 181.981 122.473 184.661 126.272 184.661C130.072 184.661 132.605 181.979 132.605 178.254Z" fill="white"/>
<path d="M140.132 177.88C140.132 171.731 143.783 168.565 149.224 168.565C154.666 168.565 158.316 171.696 158.316 177.88V187.456H154.776V177.88C154.776 173.894 152.578 171.844 149.224 171.844C145.871 171.844 143.673 173.894 143.673 177.88V187.456H140.132V177.88Z" fill="white"/>
<path d="M163.01 161.002H166.55V177.209L175.007 169.049H179.665L170.052 178.029L180 187.454H175.268L166.55 178.884V187.454H163.01V161V161.002Z" fill="white"/>
<path d="M138.432 64.6412C134.793 64.5405 131.714 67.5052 131.608 71.2159C131.49 75.3311 134.173 78.2327 138.16 78.2992C141.924 78.3624 144.962 75.5683 145.165 71.8594C145.367 68.1965 142.146 64.7436 138.432 64.6412Z" fill="white"/>
<path d="M40.4255 64.6464C36.5868 64.7403 33.7227 67.8723 33.8337 71.856C33.9395 75.6281 36.8531 78.3625 40.6951 78.2959C44.3614 78.2328 47.4457 75.1827 47.4679 71.5983C47.49 67.9969 44.0081 64.5576 40.4255 64.6447V64.6464Z" fill="white"/>
<path d="M63.5872 43.6985H54.1074V129.801H63.5872V43.6985Z" fill="white"/>
<path d="M114.529 43.6985V129.801H124.009V43.6985H114.529Z" fill="white"/>
<path d="M71.145 82.0014C71.7066 83.7253 73.1454 87.3369 76.6598 90.3939C81.6728 94.7548 87.4094 94.9409 89.1504 94.9716C90.9903 95.004 96.1194 95.016 101.004 91.3941C105.541 88.0299 107.149 83.5426 107.64 81.9468C105.15 80.9722 102.66 79.9993 100.17 79.0247C98.4475 83.616 94.0234 86.6542 89.1504 86.6047C84.3798 86.5552 80.0905 83.5546 78.3871 79.0656C75.9736 80.0436 73.5585 81.0217 71.145 82.0014Z" fill="white"/>
</svg>
