<svg width="77" height="77" viewBox="0 0 77 77" fill="none" xmlns="http://www.w3.org/2000/svg">
<rect width="77" height="77" rx="38.5" fill="#70AD47"/>
<path d="M58.1848 29.2991C56.7209 29.2586 55.4822 30.4513 55.4396 31.944C55.3922 33.5995 56.4716 34.7668 58.0756 34.7935C59.5896 34.8189 60.8118 33.6949 60.8935 32.2029C60.9746 30.7294 59.6789 29.3403 58.1848 29.2991Z" fill="white"/>
<path d="M18.7583 29.3014C17.214 29.3391 16.0618 30.5991 16.1065 32.2017C16.149 33.7192 17.3211 34.8192 18.8667 34.7924C20.3416 34.767 21.5824 33.54 21.5913 32.098C21.6002 30.6492 20.1995 29.2657 18.7583 29.3007V29.3014Z" fill="white"/>
<path d="M28.0758 20.874H24.2622V55.512H28.0758V20.874Z" fill="white"/>
<path d="M48.5691 20.874V55.512H52.3827V20.874H48.5691Z" fill="white"/>
<path d="M31.1162 36.2829C31.3421 36.9764 31.9209 38.4294 33.3347 39.6591C35.3514 41.4135 37.6591 41.4883 38.3595 41.5007C39.0997 41.5137 41.163 41.5185 43.1282 40.0615C44.9533 38.7081 45.6001 36.903 45.7978 36.261C44.796 35.8689 43.7942 35.4775 42.7924 35.0854C42.0996 36.9325 40.3199 38.1547 38.3595 38.1348C36.4404 38.1149 34.7149 36.9078 34.0296 35.1019C33.0587 35.4954 32.0871 35.8888 31.1162 36.2829Z" fill="white"/>
</svg>
