<svg width="180" height="35" viewBox="0 0 180 35" fill="none" xmlns="http://www.w3.org/2000/svg">
<path d="M0 2.09009H3.79934V12.3351H17.3979V2.09009H21.1972V26.4562H17.3979V15.8372H3.79934V26.4562H0V2.09009Z" fill="#70AD47"/>
<path d="M25.8953 17.6637V8.05151H29.4357V17.6637C29.4357 21.65 31.6338 23.6611 34.9873 23.6611C38.3408 23.6611 40.5389 21.65 40.5389 17.6637V8.05151H44.0794V17.6637C44.0794 23.7738 40.4286 26.9403 34.9873 26.9403C29.546 26.9403 25.8953 23.8098 25.8953 17.6637Z" fill="#70AD47"/>
<path d="M48.0275 28.6543H51.6423C52.498 30.7781 54.6602 31.7105 57.3425 31.7105C61.1059 31.7105 63.6012 29.9223 63.6012 25.1162V22.9925C62.3356 25.3775 59.7635 26.7918 56.6713 26.7918C51.9012 26.7918 47.3563 23.5126 47.3563 17.2539C47.3563 11.664 51.4553 7.56738 57.2658 7.56738C63.0762 7.56738 67.1009 11.4794 67.1009 17.4025V24.9652C67.1009 32.0437 62.779 34.8003 57.3401 34.8003C52.8312 34.8003 49.2931 32.8995 48.0251 28.6519L48.0275 28.6543ZM63.6012 17.2539C63.6012 13.5289 61.0675 10.8442 57.2682 10.8442C53.4688 10.8442 50.9351 13.5265 50.9351 17.2539C50.9351 20.9813 53.4688 23.4766 57.2682 23.4766C61.0675 23.4766 63.6012 20.9813 63.6012 17.2539Z" fill="#70AD47"/>
<path d="M70.3824 17.2539C70.3824 11.664 74.4814 7.56738 80.2919 7.56738C86.1024 7.56738 90.2037 11.6664 90.2037 17.2539C90.2037 22.8414 86.1048 26.9404 80.2919 26.9404C74.479 26.9404 70.3824 22.8414 70.3824 17.2539ZM86.6273 17.2539C86.6273 13.5289 84.0936 10.8442 80.2943 10.8442C76.4949 10.8442 73.9613 13.5265 73.9613 17.2539C73.9613 20.9813 76.4949 23.6612 80.2943 23.6612C84.0936 23.6612 86.6273 20.9789 86.6273 17.2539Z" fill="#70AD47"/>
<path d="M94.1541 2.09005H105.89C110.399 2.09005 112.82 4.69804 112.82 8.34876C112.82 10.8824 111.59 12.8193 109.467 13.7877V13.862C112.261 14.6818 113.937 16.9542 113.937 19.9337C113.937 23.6971 111.478 26.4537 106.859 26.4537H94.1541V2.08765V2.09005ZM105.48 12.2991C107.791 12.2991 109.057 10.8824 109.057 8.94562C109.057 7.0088 108.014 5.59214 105.406 5.59214H97.9534V12.2991H105.48ZM106.226 22.954C108.908 22.954 110.025 21.3887 110.025 19.4519C110.025 17.3281 108.647 15.8012 106.3 15.8012H97.9534V22.954H106.226Z" fill="#70AD47"/>
<path d="M116.36 17.4025C116.36 11.628 120.459 7.56738 126.308 7.56738C132.157 7.56738 136.107 11.5177 136.107 17.4025V26.4562H132.867V22.4315C131.637 25.4111 128.916 26.9404 125.714 26.9404C120.908 26.9404 116.363 23.4743 116.363 17.4025H116.36ZM132.605 17.2539C132.605 13.5289 130.072 10.8442 126.272 10.8442C122.473 10.8442 119.939 13.5265 119.939 17.2539C119.939 20.9813 122.473 23.6612 126.272 23.6612C130.072 23.6612 132.605 20.9789 132.605 17.2539Z" fill="#70AD47"/>
<path d="M140.132 16.8799C140.132 10.7315 143.783 7.56494 149.224 7.56494C154.666 7.56494 158.316 10.6955 158.316 16.8799V26.4561H154.776V16.8799C154.776 12.8936 152.578 10.8441 149.224 10.8441C145.871 10.8441 143.673 12.8936 143.673 16.8799V26.4561H140.132V16.8799Z" fill="#70AD47"/>
<path d="M163.01 0.0023994H166.55V16.2089L175.007 8.04932H179.664L170.052 17.0287L180 26.4539H175.268L166.55 17.8845V26.4539H163.01V0V0.0023994Z" fill="#70AD47"/>
</svg>
