<svg width="368" height="392" viewBox="0 0 368 392" fill="none" xmlns="http://www.w3.org/2000/svg">
<g opacity="0.15">
<path d="M325.753 291.587C298.741 298.073 270.542 297.759 243.68 290.672C216.819 283.586 192.135 269.948 171.838 250.981C151.541 232.013 136.265 208.308 127.377 181.988C118.49 155.668 116.269 127.554 120.913 100.165C120.207 100.847 119.461 101.488 118.68 102.082C113.146 106.292 106.229 107.853 92.3952 110.975L79.8459 113.821C31.2297 124.829 6.92159 130.323 1.13112 148.92C-4.63959 167.497 11.9215 186.884 45.0636 225.639L53.6406 235.658C63.0476 246.666 67.7709 252.18 69.8855 258.978C72.0001 265.796 71.2887 273.148 69.8657 287.832L68.5614 301.211C63.5614 352.93 61.0516 378.78 76.1898 390.262C91.328 401.764 114.095 391.289 159.588 370.321L171.387 364.906C184.311 358.938 190.774 355.973 197.632 355.973C204.489 355.973 210.952 358.938 223.896 364.906L235.655 370.321C281.168 391.27 303.935 401.744 319.053 390.282C334.211 378.78 331.702 352.93 326.702 301.211L325.753 291.587Z" fill="url(#paint0_linear_1_64)"/>
<path opacity="0.5" d="M141.367 67.1012L134.884 78.7217C127.77 91.4884 124.213 97.8717 118.679 102.081C119.47 101.488 120.201 100.856 120.912 100.164C116.267 127.555 118.488 155.671 127.377 181.993C136.265 208.315 151.543 232.022 171.843 250.99C192.142 269.958 216.829 283.595 243.693 290.68C270.557 297.764 298.759 298.076 325.772 291.586L325.377 287.831C323.974 273.147 323.262 265.795 325.377 258.977C327.492 252.179 332.195 246.665 341.622 235.657L350.199 225.637C383.341 186.903 399.902 167.515 394.112 148.919C388.341 130.322 364.033 124.808 315.417 113.82L302.848 110.974C289.033 107.852 282.117 106.291 276.563 102.081C271.03 97.8717 267.472 91.4884 260.358 78.7217L253.895 67.1012C228.856 22.2004 216.346 -0.25 197.631 -0.25C178.916 -0.25 166.406 22.2004 141.367 67.1012Z" fill="url(#paint1_linear_1_64)"/>
</g>
<defs>
<linearGradient id="paint0_linear_1_64" x1="165.282" y1="100.165" x2="165.282" y2="395.007" gradientUnits="userSpaceOnUse">
<stop stop-color="white"/>
<stop offset="1" stop-color="white" stop-opacity="0"/>
</linearGradient>
<linearGradient id="paint1_linear_1_64" x1="256.899" y1="-0.25" x2="256.899" y2="296.233" gradientUnits="userSpaceOnUse">
<stop stop-color="white"/>
<stop offset="1" stop-color="white" stop-opacity="0"/>
</linearGradient>
</defs>
</svg>
